<?xml version="1.0" encoding="UTF-8" standalone="no"?>
<!-- Created with Inkscape (http://www.inkscape.org/) -->

<svg
   width="86mm"
   height="9mm"
   viewBox="0 0 86 9"
   version="1.1"
   id="svg1807"
   inkscape:version="1.1.1 (3bf5ae0d25, 2021-09-20)"
   sodipodi:docname="revpi_logo_banner_bw.svg"
   xmlns:inkscape="http://www.inkscape.org/namespaces/inkscape"
   xmlns:sodipodi="http://sodipodi.sourceforge.net/DTD/sodipodi-0.dtd"
   xmlns="http://www.w3.org/2000/svg"
   xmlns:svg="http://www.w3.org/2000/svg">
  <sodipodi:namedview
     id="namedview1809"
     pagecolor="#ffffff"
     bordercolor="#666666"
     borderopacity="1.0"
     inkscape:pageshadow="2"
     inkscape:pageopacity="0.0"
     inkscape:pagecheckerboard="0"
     inkscape:document-units="mm"
     showgrid="false"
     height="209mm"
     inkscape:zoom="3.1108586"
     inkscape:cx="193.99789"
     inkscape:cy="-25.555646"
     inkscape:window-width="2560"
     inkscape:window-height="1369"
     inkscape:window-x="-8"
     inkscape:window-y="-8"
     inkscape:window-maximized="1"
     inkscape:current-layer="layer1"
     width="91mm" />
  <defs
     id="defs1804">
    <clipPath
       clipPathUnits="userSpaceOnUse"
       id="clipPath894">
      <path
         d="M 36,781.587 H 265 V 805.89 H 36 Z"
         id="path892" />
    </clipPath>
  </defs>
  <g
     inkscape:label="Layer 1"
     inkscape:groupmode="layer"
     id="layer1">
    <g
       id="g844"
       transform="matrix(0.37246221,0,0,-0.37246221,75.946679,0.04270931)">
      <path
         d="M 0,0 -0.167,-0.167 V -23.744 L 0,-23.908 h 5.095 l 0.161,0.164 V -0.167 L 5.095,0 Z"
         style="fill:#080200;fill-opacity:1;fill-rule:nonzero;stroke:none"
         id="path846" />
    </g>
    <g
       id="g848"
       transform="matrix(0.37246221,0,0,-0.37246221,53.306192,0.04270931)">
      <path
         d="M 0,0 -0.164,-0.167 V -23.744 L 0,-23.908 h 5.095 l 0.161,0.164 V -0.167 L 5.095,0 Z"
         style="fill:#080200;fill-opacity:1;fill-rule:nonzero;stroke:none"
         id="path850" />
    </g>
    <g
       id="g852"
       transform="matrix(0.37246221,0,0,-0.37246221,31.918406,0.04270931)">
      <path
         d="M 0,0 -0.166,-0.167 V -23.744 L 0,-23.908 h 5.095 l 0.161,0.164 V -0.167 L 5.095,0 Z"
         style="fill:#080200;fill-opacity:1;fill-rule:nonzero;stroke:none"
         id="path854" />
    </g>
    <g
       id="g856"
       transform="matrix(0.37246221,0,0,-0.37246221,7.8053169,0.04270931)">
      <path
         d="M 0,0 -0.167,-0.167 V -23.744 L 0,-23.908 h 5.094 l 0.161,0.164 V -0.167 L 5.094,0 Z"
         style="fill:#080200;fill-opacity:1;fill-rule:nonzero;stroke:none"
         id="path858" />
    </g>
    <g
       id="g860"
       transform="matrix(0.37246221,0,0,-0.37246221,0.09400942,0.04270931)">
      <path
         d="M 0,0 -0.164,-0.167 V -23.744 L 0,-23.908 h 5.095 l 0.161,0.164 V -0.167 L 5.095,0 Z"
         style="fill:#080200;fill-opacity:1;fill-rule:nonzero;stroke:none"
         id="path862" />
    </g>
    <g
       id="g864"
       transform="matrix(0.37246221,0,0,-0.37246221,48.497183,2.1827282)">
      <path
         d="M 0,0 -0.167,-0.166 V -17.998 L 0,-18.162 h 5.095 l 0.161,0.164 V -0.166 L 5.095,0 Z"
         style="fill:#080200;fill-opacity:1;fill-rule:nonzero;stroke:none"
         id="path866" />
    </g>
    <g
       id="g868"
       transform="matrix(0.37246221,0,0,-0.37246221,46.162403,0.04270931)">
      <path
         d="M 0,0 -0.167,-0.161 V -4.339 L 0,-4.508 h 17.832 l 0.163,0.169 v 4.178 L 17.832,0 Z"
         style="fill:#080200;fill-opacity:1;fill-rule:nonzero;stroke:none"
         id="path870" />
    </g>
    <g
       id="g872"
       transform="matrix(0.37246221,0,0,-0.37246221,34.296093,7.2431491)">
      <path
         d="M 0,0 -0.168,-0.159 V -4.337 L 0,-4.506 h 11.379 l 0.163,0.169 v 4.178 L 11.379,0 Z"
         style="fill:#080200;fill-opacity:1;fill-rule:nonzero;stroke:none"
         id="path874" />
    </g>
    <g
       id="g876"
       transform="matrix(0.37246221,0,0,-0.37246221,10.149481,7.2689613)">
      <path
         d="M 0,0 -0.167,-0.162 V -4.34 L 0,-4.506 h 10.972 l 0.164,0.166 v 4.178 L 10.972,0 Z"
         style="fill:#080200;fill-opacity:1;fill-rule:nonzero;stroke:none"
         id="path878" />
    </g>
    <g
       id="g880"
       transform="matrix(0.37246221,0,0,-0.37246221,10.135737,0.04270931)">
      <path
         d="M 0,0 -0.167,-0.161 V -4.339 L 0,-4.508 h 10.971 l 0.164,0.169 v 4.178 L 10.971,0 Z"
         style="fill:#080200;fill-opacity:1;fill-rule:nonzero;stroke:none"
         id="path882" />
    </g>
    <g
       id="g884"
       transform="matrix(0.37246221,0,0,-0.37246221,13.61524,5.1893552)">
      <path
         d="m 0,0 0.162,0.164 v 4.18 L 0,4.506 H -9.382 L -9.546,4.344 V 0.164 L -9.382,0 Z"
         style="fill:#080200;fill-opacity:1;fill-rule:nonzero;stroke:none"
         id="path886" />
    </g>
    <g
       id="g888"
       transform="matrix(0.37246221,0,0,-0.37246221,-13.375641,300.1294)">
      <g
         id="g890"
         clip-path="url(#clipPath894)">
        <g
           id="g896"
           transform="translate(214.52,781.7761)">
          <path
             d="M 0,0 0.082,0.084 V 13.11 c 0,0.4 -5.236,8.887 -5.236,8.887 H -5.34 V 0.164 L -5.154,0 Z"
             style="fill:#080200;fill-opacity:1;fill-rule:nonzero;stroke:none"
             id="path898" />
        </g>
        <g
           id="g900"
           transform="translate(259.5776,781.9402)">
          <path
             d="M 0,0 0.166,-0.164 H 5.261 L 5.422,0 V 23.577 L 5.261,23.743 H 0.166 L 0,23.577 Z"
             style="fill:#080200;fill-opacity:1;fill-rule:nonzero;stroke:none"
             id="path902" />
        </g>
        <g
           id="g904"
           transform="translate(86.644,790.9418)">
          <path
             d="m 0,0 v -9.166 h 1.813 l 8.686,23.831 H 5.34 Z"
             style="fill:#080200;fill-opacity:1;fill-rule:nonzero;stroke:none"
             id="path906" />
        </g>
        <g
           id="g908"
           transform="translate(75.1761,805.6538)">
          <path
             d="m 0,0 8.706,-23.858 h 1.744 v 9.35 L 5.156,0 Z"
             style="fill:#080200;fill-opacity:1;fill-rule:nonzero;stroke:none"
             id="path910" />
        </g>
        <g
           id="g912"
           transform="translate(249.7714,805.7557)">
          <path
             d="m 0,0 h -3.661 l -0.172,-0.164 v -4.079 l 0.172,-0.183 c 0,0 3.661,0.039 3.661,-0.085 1.659,0 2.682,-0.929 3.062,-2.791 v -0.435 c 0,-1.707 -0.854,-2.839 -2.548,-3.393 0,0 -0.643,-0.082 -0.936,-0.082 h -3.239 l -0.172,-0.184 v -4.163 l 0.172,-0.167 h 1.959 c 3.982,0 10.202,0.974 10.202,7.822 v 0.333 C 8.5,-0.755 3.202,0 0,0"
             style="fill:#080200;fill-opacity:1;fill-rule:nonzero;stroke:none"
             id="path914" />
        </g>
        <g
           id="g916"
           transform="translate(152.989,805.7606)">
          <path
             d="m 0,0 v -15.897 c 0,-1.759 -0.651,-2.648 -2.27,-2.648 -0.572,-0.025 -0.723,-0.01 -0.723,-0.01 v -5.41 l 1.14,0.005 c 3.805,0 7.273,1.819 7.273,7.517 v 16.09 l -0.313,0.348 z"
             style="fill:#080200;fill-opacity:1;fill-rule:nonzero;stroke:none"
             id="path918" />
        </g>
        <g
           id="g920"
           transform="translate(214.5522,805.6339)">
          <path
             d="M 0,0 H -4.98 L 9.108,-23.858 h 4.891 z"
             style="fill:#080200;fill-opacity:1;fill-rule:nonzero;stroke:none"
             id="path922" />
        </g>
        <g
           id="g924"
           transform="translate(223.3102,805.6414)">
          <path
             d="m 0,0 -0.082,-0.084 0.003,-13.031 5.236,-8.882 H 5.343 V -0.169 L 5.157,0 Z"
             style="fill:#080200;fill-opacity:1;fill-rule:nonzero;stroke:none"
             id="path926" />
        </g>
        <g
           id="g928"
           transform="translate(54.1449,787.6183)">
          <path
             d="m 0,0 -0.604,2.98 c -0.827,1.744 -1.731,2.611 -2.707,2.611 v 0.087 c 0.67,0.119 1.177,0.432 1.177,0.432 1.93,1.023 2.899,2.802 2.899,5.343 0,4.285 -3.055,6.605 -7.889,6.605 h -4.578 l -0.164,-0.169 v -4.158 l 0.164,-0.167 h 2.633 c 3.244,0 4.494,-1.095 4.494,-2.63 v -0.678 c 0,-1.98 -1.672,-2.963 -5.013,-2.963 h -2.114 L -11.866,7.124 V 3.062 l 0.164,-0.183 h 0.251 c 0,0 2.703,0.097 4.493,-0.251 0.711,-0.417 1.165,-0.986 1.364,-1.694 0.47,-2.996 0.85,-4.739 0.85,-4.739 0.487,-1.357 0.827,-2.035 1.015,-2.035 l 5.336,-0.002 -0.003,0.318 z"
             style="fill:#080200;fill-opacity:1;fill-rule:nonzero;stroke:none"
             id="path930" />
        </g>
        <g
           id="g932"
           transform="translate(145.9943,805.7606)">
          <path
             d="m 0,0 v -15.897 c 0,-1.759 0.653,-2.648 2.27,-2.648 0.572,-0.025 0.721,-0.007 0.721,-0.007 v -5.413 L 1.85,-23.96 c -3.802,0 -7.275,1.819 -7.275,7.517 v 16.09 l 0.318,0.348 z"
             style="fill:#080200;fill-opacity:1;fill-rule:nonzero;stroke:none"
             id="path934" />
        </g>
        <g
           id="g936"
           transform="translate(102.2878,793.6442)">
          <path
             d="m 0,0 c 0,3.855 2.469,7.024 5.651,7.457 v 4.6 C -0.472,11.664 -5.321,6.419 -5.321,0 c 0,-6.418 4.849,-11.667 10.972,-12.052 v 4.6 C 2.469,-7.024 0,-3.852 0,0"
             style="fill:#080200;fill-opacity:1;fill-rule:nonzero;stroke:none"
             id="path938" />
        </g>
        <g
           id="g940"
           transform="translate(120.3754,793.6442)">
          <path
             d="M 0,0 C 0,6.436 -4.874,11.689 -11.019,12.057 V 7.462 C -7.817,7.059 -5.321,3.87 -5.321,0 c 0,-3.87 -2.496,-7.057 -5.698,-7.459 v -4.598 C -4.874,-11.689 0,-6.433 0,0"
             style="fill:#080200;fill-opacity:1;fill-rule:nonzero;stroke:none"
             id="path942" />
        </g>
        <g
           id="g944"
           transform="translate(190.3689,793.8331)">
          <path
             d="m 0,0 c 0,3.852 2.472,7.024 5.653,7.452 v 4.6 C -0.469,11.664 -5.32,6.418 -5.32,0 c 0,-6.418 4.851,-11.664 10.973,-12.057 v 4.6 C 2.472,-7.029 0,-3.855 0,0"
             style="fill:#080200;fill-opacity:1;fill-rule:nonzero;stroke:none"
             id="path946" />
        </g>
        <g
           id="g948"
           transform="translate(208.4565,793.8331)">
          <path
             d="M 0,0 C 0,6.431 -4.873,11.689 -11.016,12.057 V 7.459 C -7.817,7.057 -5.32,3.87 -5.32,0 c 0,-3.875 -2.497,-7.059 -5.696,-7.464 v -4.593 C -4.873,-11.689 0,-6.433 0,0"
             style="fill:#080200;fill-opacity:1;fill-rule:nonzero;stroke:none"
             id="path950" />
        </g>
      </g>
    </g>
  </g>
</svg>
